<svg width="220" height="166" viewBox="0 0 220 166" fill="none" xmlns="http://www.w3.org/2000/svg">
<mask id="mask0_315_49" style="mask-type:luminance" maskUnits="userSpaceOnUse" x="12" y="8" width="200" height="150">
<path d="M12 8H212V158H12V8Z" fill="white"/>
</mask>
<g mask="url(#mask0_315_49)">
<g filter="url(#filter0_dd_315_49)">
<path d="M198 18H26C24.9391 18 23.9217 18.4214 23.1716 19.1716C22.4214 19.9217 22 20.9391 22 22V144C22 145.061 22.4214 146.078 23.1716 146.828C23.9217 147.579 24.9391 148 26 148H198C199.061 148 200.078 147.579 200.828 146.828C201.579 146.078 202 145.061 202 144V22C202 20.9391 201.579 19.9217 200.828 19.1716C200.078 18.4214 199.061 18 198 18Z" fill="white"/>
<path d="M190 44H74C73.4696 44 72.9609 44.2107 72.5858 44.5858C72.2107 44.9609 72 45.4696 72 46V114C72 114.53 72.2107 115.039 72.5858 115.414C72.9609 115.789 73.4696 116 74 116H190C190.53 116 191.039 115.789 191.414 115.414C191.789 115.039 192 114.53 192 114V46C192 45.4696 191.789 44.9609 191.414 44.5858C191.039 44.2107 190.53 44 190 44ZM190 126H74C73.4696 126 72.9609 126.211 72.5858 126.586C72.2107 126.961 72 127.47 72 128V146C72 146.53 72.2107 147.039 72.5858 147.414C72.9609 147.789 73.4696 148 74 148H190C190.53 148 191.039 147.789 191.414 147.414C191.789 147.039 192 146.53 192 146V128C192 127.47 191.789 126.961 191.414 126.586C191.039 126.211 190.53 126 190 126Z" fill="#F0F1F2"/>
<path d="M108 28H75C74.2044 28 73.4413 28.3161 72.8787 28.8787C72.3161 29.4413 72 30.2044 72 31C72 31.7956 72.3161 32.5587 72.8787 33.1213C73.4413 33.6839 74.2044 34 75 34H108C108.796 34 109.559 33.6839 110.121 33.1213C110.684 32.5587 111 31.7956 111 31C111 30.2044 110.684 29.4413 110.121 28.8787C109.559 28.3161 108.796 28 108 28Z" fill="#B6BABF"/>
<path d="M62 18H26C24.9391 18 23.9217 18.4214 23.1716 19.1716C22.4214 19.9217 22 20.9391 22 22V144C22 145.061 22.4214 146.078 23.1716 146.828C23.9217 147.579 24.9391 148 26 148H62V18Z" fill="#00735C"/>
<path d="M30 31.799C31.763 31.799 31.861 30.025 33.918 30.025C36.025 30.025 36.025 32.025 38.082 32.025C40.139 32.025 40.237 30.252 42.196 30.252C44.156 30.252 44.106 32.025 46.114 32.025C48.122 32.025 48.269 30.252 50.18 30.252C52.09 30.252 52.776 32.025 54 32.025" stroke="#00996E" stroke-width="2" stroke-linecap="round" stroke-linejoin="round"/>
</g>
</g>
<g filter="url(#filter1_dd_315_49)">
<path d="M98 49H16C13.7909 49 12 50.7909 12 53V135C12 137.209 13.7909 139 16 139H98C100.209 139 102 137.209 102 135V53C102 50.7909 100.209 49 98 49Z" fill="white"/>
<path d="M90.8364 114H24.0364C22.3594 114 21 115.359 21 117.036V129.181C21 130.858 22.3594 132.217 24.0364 132.217H90.8364C92.5133 132.217 93.8727 130.858 93.8727 129.181V117.036C93.8727 115.359 92.5133 114 90.8364 114Z" fill="#108060"/>
<path d="M31.6268 57.9848C31.6268 60.1863 30.0029 61.9696 28.0001 61.9696C25.9973 61.9696 24.3733 60.1855 24.3733 57.9848C24.3733 55.7833 25.9973 54 28.0001 54C30.0029 54 31.6268 55.7842 31.6268 57.9848ZM21.5758 66.7211C22.7666 65.6926 25.1359 64.0266 28.0001 64.0266C30.8643 64.0266 33.2335 65.6926 34.4243 66.7211C34.9555 67.1801 35.1219 67.9562 34.9119 68.6625L34.6253 69.6264C34.3815 70.4458 33.6865 71 32.9017 71H23.0985C22.3137 71 21.6178 70.4458 21.3749 69.6264L21.0883 68.6625C20.8783 67.957 21.0438 67.1801 21.5758 66.7202V66.7211Z" fill="#108060"/>
</g>
<path d="M85 79H23C21.8954 79 21 79.8954 21 81C21 82.1046 21.8954 83 23 83H85C86.1046 83 87 82.1046 87 81C87 79.8954 86.1046 79 85 79Z" fill="#D2D5D9"/>
<path d="M79 89H23C21.8954 89 21 89.8954 21 91C21 92.1046 21.8954 93 23 93H79C80.1046 93 81 92.1046 81 91C81 89.8954 80.1046 89 79 89Z" fill="#D2D5D9"/>
<path d="M45 99H23C21.8954 99 21 99.8954 21 101C21 102.105 21.8954 103 23 103H45C46.1046 103 47 102.105 47 101C47 99.8954 46.1046 99 45 99Z" fill="#D2D5D9"/>
<path d="M81 59H44C43.2044 59 42.4413 59.3161 41.8787 59.8787C41.3161 60.4413 41 61.2044 41 62C41 62.7956 41.3161 63.5587 41.8787 64.1213C42.4413 64.6839 43.2044 65 44 65H81C81.7956 65 82.5587 64.6839 83.1213 64.1213C83.6839 63.5587 84 62.7956 84 62C84 61.2044 83.6839 60.4413 83.1213 59.8787C82.5587 59.3161 81.7956 59 81 59Z" fill="#B6BABF"/>
<defs>
<filter id="filter0_dd_315_49" x="10.07" y="7.626" width="203.86" height="153.86" filterUnits="userSpaceOnUse" color-interpolation-filters="sRGB">
<feFlood flood-opacity="0" result="BackgroundImageFix"/>
<feColorMatrix in="SourceAlpha" type="matrix" values="0 0 0 0 0 0 0 0 0 0 0 0 0 0 0 0 0 0 127 0" result="hardAlpha"/>
<feOffset dy="1.556"/>
<feGaussianBlur stdDeviation="5.965"/>
<feColorMatrix type="matrix" values="0 0 0 0 0 0 0 0 0 0 0 0 0 0 0 0 0 0 0.09 0"/>
<feBlend mode="normal" in2="BackgroundImageFix" result="effect1_dropShadow_315_49"/>
<feColorMatrix in="SourceAlpha" type="matrix" values="0 0 0 0 0 0 0 0 0 0 0 0 0 0 0 0 0 0 127 0" result="hardAlpha"/>
<feOffset dy="1.037"/>
<feGaussianBlur stdDeviation="0.778"/>
<feColorMatrix type="matrix" values="0 0 0 0 0 0 0 0 0 0 0 0 0 0 0 0 0 0 0.12 0"/>
<feBlend mode="normal" in2="effect1_dropShadow_315_49" result="effect2_dropShadow_315_49"/>
<feBlend mode="normal" in="SourceGraphic" in2="effect2_dropShadow_315_49" result="shape"/>
</filter>
<filter id="filter1_dd_315_49" x="0.0699997" y="38.626" width="113.86" height="113.86" filterUnits="userSpaceOnUse" color-interpolation-filters="sRGB">
<feFlood flood-opacity="0" result="BackgroundImageFix"/>
<feColorMatrix in="SourceAlpha" type="matrix" values="0 0 0 0 0 0 0 0 0 0 0 0 0 0 0 0 0 0 127 0" result="hardAlpha"/>
<feOffset dy="1.556"/>
<feGaussianBlur stdDeviation="5.965"/>
<feColorMatrix type="matrix" values="0 0 0 0 0 0 0 0 0 0 0 0 0 0 0 0 0 0 0.09 0"/>
<feBlend mode="normal" in2="BackgroundImageFix" result="effect1_dropShadow_315_49"/>
<feColorMatrix in="SourceAlpha" type="matrix" values="0 0 0 0 0 0 0 0 0 0 0 0 0 0 0 0 0 0 127 0" result="hardAlpha"/>
<feOffset dy="1.037"/>
<feGaussianBlur stdDeviation="0.778"/>
<feColorMatrix type="matrix" values="0 0 0 0 0 0 0 0 0 0 0 0 0 0 0 0 0 0 0.12 0"/>
<feBlend mode="normal" in2="effect1_dropShadow_315_49" result="effect2_dropShadow_315_49"/>
<feBlend mode="normal" in="SourceGraphic" in2="effect2_dropShadow_315_49" result="shape"/>
</filter>
</defs>
</svg>
