<svg width="220" height="166" viewBox="0 0 220 166" fill="none" xmlns="http://www.w3.org/2000/svg">
<mask id="mask0_315_27" style="mask-type:luminance" maskUnits="userSpaceOnUse" x="12" y="8" width="200" height="150">
<path d="M12 8H212V158H12V8Z" fill="white"/>
</mask>
<g mask="url(#mask0_315_27)">
<g filter="url(#filter0_dd_315_27)">
<path d="M198 18H26C24.9391 18 23.9217 18.4214 23.1716 19.1716C22.4214 19.9217 22 20.9391 22 22V144C22 145.061 22.4214 146.078 23.1716 146.828C23.9217 147.579 24.9391 148 26 148H198C199.061 148 200.078 147.579 200.828 146.828C201.579 146.078 202 145.061 202 144V22C202 20.9391 201.579 19.9217 200.828 19.1716C200.078 18.4214 199.061 18 198 18Z" fill="white"/>
<path d="M190 44H74C73.4696 44 72.9609 44.2107 72.5858 44.5858C72.2107 44.9609 72 45.4696 72 46V114C72 114.53 72.2107 115.039 72.5858 115.414C72.9609 115.789 73.4696 116 74 116H190C190.53 116 191.039 115.789 191.414 115.414C191.789 115.039 192 114.53 192 114V46C192 45.4696 191.789 44.9609 191.414 44.5858C191.039 44.2107 190.53 44 190 44ZM190 126H74C73.4696 126 72.9609 126.211 72.5858 126.586C72.2107 126.961 72 127.47 72 128V146C72 146.53 72.2107 147.039 72.5858 147.414C72.9609 147.789 73.4696 148 74 148H190C190.53 148 191.039 147.789 191.414 147.414C191.789 147.039 192 146.53 192 146V128C192 127.47 191.789 126.961 191.414 126.586C191.039 126.211 190.53 126 190 126Z" fill="#F0F1F2"/>
<path d="M108 28H75C74.2044 28 73.4413 28.3161 72.8787 28.8787C72.3161 29.4413 72 30.2044 72 31C72 31.7956 72.3161 32.5587 72.8787 33.1213C73.4413 33.6839 74.2044 34 75 34H108C108.796 34 109.559 33.6839 110.121 33.1213C110.684 32.5587 111 31.7956 111 31C111 30.2044 110.684 29.4413 110.121 28.8787C109.559 28.3161 108.796 28 108 28Z" fill="#B6BABF"/>
<path d="M62 18H26C24.9391 18 23.9217 18.4214 23.1716 19.1716C22.4214 19.9217 22 20.9391 22 22V144C22 145.061 22.4214 146.078 23.1716 146.828C23.9217 147.579 24.9391 148 26 148H62V18Z" fill="#00735C"/>
<path d="M30 31.799C31.763 31.799 31.861 30.025 33.918 30.025C36.025 30.025 36.025 32.025 38.082 32.025C40.139 32.025 40.237 30.252 42.196 30.252C44.156 30.252 44.106 32.025 46.114 32.025C48.122 32.025 48.269 30.252 50.18 30.252C52.09 30.252 52.776 32.025 54 32.025" stroke="#00996E" stroke-width="2" stroke-linecap="round" stroke-linejoin="round"/>
</g>
</g>
<g filter="url(#filter1_dd_315_27)">
<path d="M108 53H16C13.7909 53 12 54.7909 12 57V89C12 91.2091 13.7909 93 16 93H108C110.209 93 112 91.2091 112 89V57C112 54.7909 110.209 53 108 53Z" fill="white"/>
<g filter="url(#filter2_d_315_27)">
<path d="M36.0612 73.8584L33.8265 75.7212C33.6479 75.8664 33.3877 75.8664 33.2143 75.7212L30.9796 73.8634L21.852 81.4348H45.1479L36.0612 73.8584Z" fill="#9FA5AB"/>
<path d="M21 65.5659V80.869L30.1888 73.2174L21 65.5659Z" fill="#9FA5AB"/>
<path d="M21.852 65L33.5 74.6996L45.1479 65H21.852Z" fill="#9FA5AB"/>
<path d="M36.8112 73.2174L46 80.869V65.5659L36.8112 73.2174Z" fill="#9FA5AB"/>
</g>
</g>
<path d="M58.3568 79.9332C57.2995 79.9332 56.3582 79.7891 55.5329 79.5007C54.7077 79.2157 54.01 78.7964 53.4399 78.2429C52.8698 77.6927 52.4356 77.0199 52.1373 76.2244C51.839 75.429 51.6899 74.5241 51.6899 73.5099C51.6899 72.509 51.839 71.6009 52.1373 70.7855C52.439 69.9702 52.8781 69.2708 53.4548 68.6875C54.0315 68.1009 54.7358 67.6501 55.5677 67.3352C56.403 67.0204 57.3542 66.8629 58.4214 66.8629C59.4091 66.8629 60.2907 67.0071 61.0663 67.2955C61.8452 67.5838 62.5048 67.9948 63.045 68.5284C63.5886 69.0587 64.0012 69.6901 64.2829 70.4226C64.568 71.1518 64.7088 71.9588 64.7055 72.8438C64.7088 73.4536 64.6558 74.0137 64.5464 74.5241C64.4371 75.0346 64.2647 75.4804 64.0294 75.8615C63.7974 76.2393 63.4925 76.5393 63.1146 76.7614C62.7368 76.9801 62.2794 77.1044 61.7425 77.1342C61.358 77.1641 61.0464 77.1359 60.8078 77.0497C60.5692 76.9635 60.3869 76.8359 60.2609 76.6669C60.1383 76.4946 60.0587 76.294 60.0223 76.0653H59.9626C59.8831 76.2642 59.7273 76.4448 59.4953 76.6072C59.2633 76.7663 58.9799 76.8906 58.6452 76.9801C58.3137 77.0663 57.9607 77.0978 57.5862 77.0746C57.1951 77.0514 56.8239 76.9602 56.4726 76.8011C56.1246 76.642 55.8147 76.4117 55.5429 76.1101C55.2744 75.8085 55.0623 75.4356 54.9065 74.9915C54.7541 74.5473 54.6762 74.0336 54.6729 73.4503C54.6762 72.8736 54.7574 72.3714 54.9165 71.9439C55.0789 71.5163 55.2926 71.1567 55.5578 70.8651C55.8263 70.5734 56.1246 70.3447 56.4527 70.179C56.7808 70.0133 57.1106 69.9072 57.442 69.8608C57.8166 69.8045 58.1712 69.8045 58.5059 69.8608C58.8407 69.9171 59.1224 70.0083 59.3511 70.1342C59.5831 70.2602 59.7273 70.3961 59.7836 70.5419H59.8532V69.9851H61.4094V74.8374C61.4127 75.0661 61.464 75.2434 61.5635 75.3693C61.6629 75.4953 61.7971 75.5582 61.9662 75.5582C62.1949 75.5582 62.3854 75.4571 62.5379 75.255C62.6937 75.0528 62.8097 74.7429 62.8859 74.3253C62.9655 73.9077 63.0052 73.3757 63.0052 72.7294C63.0052 72.1063 62.9224 71.5594 62.7567 71.0888C62.5943 70.6148 62.3656 70.2121 62.0706 69.8807C61.7789 69.5459 61.4392 69.2741 61.0514 69.0653C60.6636 68.8565 60.2427 68.7041 59.7886 68.608C59.3379 68.5118 58.8738 68.4638 58.3966 68.4638C57.5713 68.4638 56.8504 68.5897 56.2339 68.8416C55.6175 69.0902 55.1037 69.4399 54.6927 69.8906C54.2818 70.3414 53.9735 70.87 53.768 71.4766C53.5658 72.0798 53.4631 72.7377 53.4598 73.4503C53.4631 74.2358 53.5725 74.9318 53.7879 75.5384C54.0067 76.1416 54.3282 76.6487 54.7524 77.0597C55.1766 77.4706 55.7003 77.7822 56.3234 77.9943C56.9465 78.2064 57.6624 78.3125 58.4711 78.3125C58.8523 78.3125 59.2252 78.2843 59.5898 78.228C59.9543 78.175 60.2841 78.1087 60.5791 78.0291C60.8741 77.9529 61.1111 77.8783 61.29 77.8054L61.7822 79.2472C61.5734 79.3665 61.29 79.4775 60.9321 79.5803C60.5774 79.6863 60.1764 79.7708 59.729 79.8338C59.2848 79.9001 58.8274 79.9332 58.3568 79.9332ZM58.1281 75.4389C58.5325 75.4389 58.854 75.361 59.0926 75.2053C59.3345 75.0495 59.5069 74.8191 59.6096 74.5142C59.7157 74.206 59.7654 73.8265 59.7588 73.3757C59.7555 72.978 59.7041 72.6416 59.6047 72.3665C59.5086 72.0881 59.3412 71.8776 59.1025 71.7351C58.8672 71.5893 58.5391 71.5163 58.1182 71.5163C57.7503 71.5163 57.4371 71.5942 57.1785 71.75C56.9233 71.9058 56.7278 72.1245 56.5919 72.4062C56.4593 72.6847 56.3914 73.0128 56.3881 73.3906C56.3914 73.742 56.4477 74.075 56.5571 74.3899C56.6665 74.7015 56.8471 74.955 57.099 75.1506C57.3509 75.3428 57.6939 75.4389 58.1281 75.4389ZM69.5938 77.1491C68.8083 77.1491 68.1322 76.9901 67.5654 76.6719C67.002 76.3504 66.5678 75.8963 66.2629 75.3097C65.9579 74.7197 65.8055 74.022 65.8055 73.2166C65.8055 72.4311 65.9579 71.7417 66.2629 71.1484C66.5678 70.5552 66.997 70.0928 67.5505 69.7614C68.1073 69.4299 68.7603 69.2642 69.5093 69.2642C70.0131 69.2642 70.4821 69.3454 70.9163 69.5078C71.3538 69.6669 71.7349 69.9072 72.0597 70.2287C72.3879 70.5502 72.6431 70.9545 72.8254 71.4418C73.0077 71.9257 73.0988 72.4924 73.0988 73.142V73.7237H66.6507V72.4112H71.1052C71.1052 72.1063 71.0389 71.8362 70.9063 71.6009C70.7738 71.3655 70.5898 71.1816 70.3545 71.049C70.1225 70.9131 69.8524 70.8452 69.5441 70.8452C69.2226 70.8452 68.9376 70.9197 68.689 71.0689C68.4437 71.2147 68.2515 71.4119 68.1123 71.6605C67.9731 71.9058 67.9018 72.1792 67.8985 72.4808V73.7287C67.8985 74.1065 67.9681 74.433 68.1073 74.7081C68.2499 74.9832 68.4504 75.1953 68.7089 75.3445C68.9674 75.4936 69.274 75.5682 69.6286 75.5682C69.864 75.5682 70.0794 75.535 70.2749 75.4688C70.4705 75.4025 70.6379 75.303 70.7771 75.1705C70.9163 75.0379 71.0223 74.8755 71.0953 74.6832L73.0541 74.8125C72.9546 75.2831 72.7508 75.6941 72.4426 76.0455C72.1376 76.3935 71.7432 76.6652 71.2593 76.8608C70.7787 77.053 70.2236 77.1491 69.5938 77.1491ZM74.4809 77V69.3636H76.4994V70.7109H76.5889C76.748 70.2635 77.0131 69.9105 77.3843 69.652C77.7555 69.3935 78.1997 69.2642 78.7167 69.2642C79.2404 69.2642 79.6862 69.3951 80.0541 69.657C80.422 69.9155 80.6672 70.2668 80.7899 70.7109H80.8694C81.0252 70.2734 81.3069 69.9238 81.7146 69.6619C82.1256 69.3968 82.6111 69.2642 83.1713 69.2642C83.8838 69.2642 84.4622 69.4912 84.9063 69.9453C85.3538 70.3961 85.5775 71.0357 85.5775 71.8643V77H83.4646V72.282C83.4646 71.8577 83.3519 71.5395 83.1265 71.3274C82.9011 71.1153 82.6194 71.0092 82.2813 71.0092C81.8969 71.0092 81.5969 71.1319 81.3815 71.3771C81.166 71.6191 81.0583 71.9389 81.0583 72.3366V77H79.0051V72.2372C79.0051 71.8627 78.8973 71.5644 78.6819 71.3423C78.4698 71.1203 78.1897 71.0092 77.8417 71.0092C77.6064 71.0092 77.3943 71.0689 77.2053 71.1882C77.0197 71.3042 76.8722 71.4683 76.7629 71.6804C76.6535 71.8892 76.5988 72.1345 76.5988 72.4162V77H74.4809ZM89.428 77.1442C88.9408 77.1442 88.5066 77.0597 88.1254 76.8906C87.7443 76.7183 87.4427 76.4647 87.2206 76.13C87.0019 75.7919 86.8925 75.371 86.8925 74.8672C86.8925 74.4429 86.9704 74.0866 87.1262 73.7983C87.2819 73.5099 87.4941 73.2779 87.7625 73.1023C88.031 72.9266 88.3359 72.794 88.6773 72.7045C89.022 72.6151 89.3833 72.5521 89.7611 72.5156C90.2052 72.4692 90.5632 72.4261 90.835 72.3864C91.1067 72.3433 91.3039 72.2803 91.4266 72.1974C91.5492 72.1146 91.6105 71.992 91.6105 71.8295V71.7997C91.6105 71.4848 91.5111 71.2412 91.3122 71.0689C91.1167 70.8965 90.8383 70.8104 90.477 70.8104C90.0959 70.8104 89.7926 70.8949 89.5672 71.0639C89.3418 71.2296 89.1927 71.4384 89.1198 71.6903L87.161 71.5312C87.2604 71.0672 87.4559 70.6662 87.7476 70.3281C88.0393 69.9867 88.4155 69.7249 88.8762 69.5426C89.3402 69.357 89.8771 69.2642 90.4869 69.2642C90.9112 69.2642 91.3172 69.3139 91.705 69.4134C92.0961 69.5128 92.4424 69.6669 92.7441 69.8757C93.049 70.0845 93.2893 70.353 93.4649 70.6811C93.6406 71.0059 93.7284 71.3954 93.7284 71.8494V77H91.7199V75.9411H91.6602C91.5376 76.1797 91.3735 76.3902 91.1681 76.5724C90.9626 76.7514 90.7156 76.8923 90.4273 76.995C90.1389 77.0945 89.8058 77.1442 89.428 77.1442ZM90.0345 75.6825C90.3461 75.6825 90.6212 75.6212 90.8598 75.4986C91.0985 75.3726 91.2857 75.2036 91.4216 74.9915C91.5575 74.7794 91.6254 74.5391 91.6254 74.2706V73.4602C91.5592 73.5033 91.468 73.5431 91.352 73.5795C91.2393 73.6127 91.1117 73.6442 90.9692 73.674C90.8267 73.7005 90.6842 73.7254 90.5416 73.7486C90.3991 73.7685 90.2699 73.7867 90.1539 73.8033C89.9053 73.8397 89.6882 73.8977 89.5026 73.9773C89.317 74.0568 89.1728 74.1645 89.07 74.3004C88.9673 74.433 88.9159 74.5987 88.9159 74.7976C88.9159 75.0859 89.0203 75.3063 89.2291 75.4588C89.4413 75.608 89.7097 75.6825 90.0345 75.6825ZM95.3715 77V69.3636H97.4894V77H95.3715ZM96.4355 68.3793C96.1206 68.3793 95.8505 68.2749 95.6251 68.0661C95.403 67.8539 95.292 67.6004 95.292 67.3054C95.292 67.0137 95.403 66.7635 95.6251 66.5547C95.8505 66.3426 96.1206 66.2365 96.4355 66.2365C96.7503 66.2365 97.0188 66.3426 97.2409 66.5547C97.4662 66.7635 97.5789 67.0137 97.5789 67.3054C97.5789 67.6004 97.4662 67.8539 97.2409 68.0661C97.0188 68.2749 96.7503 68.3793 96.4355 68.3793ZM101.304 66.8182V77H99.186V66.8182H101.304Z" fill="#42474C"/>
<defs>
<filter id="filter0_dd_315_27" x="10.07" y="7.626" width="203.86" height="153.86" filterUnits="userSpaceOnUse" color-interpolation-filters="sRGB">
<feFlood flood-opacity="0" result="BackgroundImageFix"/>
<feColorMatrix in="SourceAlpha" type="matrix" values="0 0 0 0 0 0 0 0 0 0 0 0 0 0 0 0 0 0 127 0" result="hardAlpha"/>
<feOffset dy="1.556"/>
<feGaussianBlur stdDeviation="5.965"/>
<feColorMatrix type="matrix" values="0 0 0 0 0 0 0 0 0 0 0 0 0 0 0 0 0 0 0.09 0"/>
<feBlend mode="normal" in2="BackgroundImageFix" result="effect1_dropShadow_315_27"/>
<feColorMatrix in="SourceAlpha" type="matrix" values="0 0 0 0 0 0 0 0 0 0 0 0 0 0 0 0 0 0 127 0" result="hardAlpha"/>
<feOffset dy="1.037"/>
<feGaussianBlur stdDeviation="0.778"/>
<feColorMatrix type="matrix" values="0 0 0 0 0 0 0 0 0 0 0 0 0 0 0 0 0 0 0.12 0"/>
<feBlend mode="normal" in2="effect1_dropShadow_315_27" result="effect2_dropShadow_315_27"/>
<feBlend mode="normal" in="SourceGraphic" in2="effect2_dropShadow_315_27" result="shape"/>
</filter>
<filter id="filter1_dd_315_27" x="0.0699997" y="42.626" width="123.86" height="63.86" filterUnits="userSpaceOnUse" color-interpolation-filters="sRGB">
<feFlood flood-opacity="0" result="BackgroundImageFix"/>
<feColorMatrix in="SourceAlpha" type="matrix" values="0 0 0 0 0 0 0 0 0 0 0 0 0 0 0 0 0 0 127 0" result="hardAlpha"/>
<feOffset dy="1.556"/>
<feGaussianBlur stdDeviation="5.965"/>
<feColorMatrix type="matrix" values="0 0 0 0 0 0 0 0 0 0 0 0 0 0 0 0 0 0 0.09 0"/>
<feBlend mode="normal" in2="BackgroundImageFix" result="effect1_dropShadow_315_27"/>
<feColorMatrix in="SourceAlpha" type="matrix" values="0 0 0 0 0 0 0 0 0 0 0 0 0 0 0 0 0 0 127 0" result="hardAlpha"/>
<feOffset dy="1.037"/>
<feGaussianBlur stdDeviation="0.778"/>
<feColorMatrix type="matrix" values="0 0 0 0 0 0 0 0 0 0 0 0 0 0 0 0 0 0 0.12 0"/>
<feBlend mode="normal" in2="effect1_dropShadow_315_27" result="effect2_dropShadow_315_27"/>
<feBlend mode="normal" in="SourceGraphic" in2="effect2_dropShadow_315_27" result="shape"/>
</filter>
<filter id="filter2_d_315_27" x="17" y="65" width="33" height="24.4348" filterUnits="userSpaceOnUse" color-interpolation-filters="sRGB">
<feFlood flood-opacity="0" result="BackgroundImageFix"/>
<feColorMatrix in="SourceAlpha" type="matrix" values="0 0 0 0 0 0 0 0 0 0 0 0 0 0 0 0 0 0 127 0" result="hardAlpha"/>
<feOffset dy="4"/>
<feGaussianBlur stdDeviation="2"/>
<feComposite in2="hardAlpha" operator="out"/>
<feColorMatrix type="matrix" values="0 0 0 0 0 0 0 0 0 0 0 0 0 0 0 0 0 0 0.25 0"/>
<feBlend mode="normal" in2="BackgroundImageFix" result="effect1_dropShadow_315_27"/>
<feBlend mode="normal" in="SourceGraphic" in2="effect1_dropShadow_315_27" result="shape"/>
</filter>
</defs>
</svg>
