<svg width="334" height="252" viewBox="0 0 334 252" fill="none" xmlns="http://www.w3.org/2000/svg">
<g filter="url(#filter0_dd_207_38)">
<path d="M300.6 27.3253H39.4728C37.8622 27.3253 36.3175 27.9651 35.1787 29.1039C34.0398 30.2426 33.4 31.7871 33.4 33.3976V218.602C33.4 220.213 34.0398 221.757 35.1787 222.896C36.3175 224.035 37.8622 224.675 39.4728 224.675H300.6C302.211 224.675 303.755 224.035 304.894 222.896C306.033 221.757 306.673 220.213 306.673 218.602V33.3976C306.673 31.7871 306.033 30.2426 304.894 29.1039C303.755 27.9651 302.211 27.3253 300.6 27.3253Z" fill="white"/>
</g>
<path d="M300.6 27.3253H39.4728C37.8622 27.3253 36.3175 27.9651 35.1787 29.1039C34.0398 30.2426 33.4 31.7871 33.4 33.3976V63.7591H306.673V33.3976C306.673 31.7871 306.033 30.2426 304.894 29.1039C303.755 27.9651 302.211 27.3253 300.6 27.3253Z" fill="#00735C"/>
<path d="M51.6182 46.7172C54.2947 46.7172 54.4435 44.0241 57.5664 44.0241C60.7652 44.0241 60.7652 47.0603 63.8881 47.0603C67.011 47.0603 67.1598 44.3672 70.1339 44.3672C73.1095 44.3672 73.0336 47.0603 76.0821 47.0603C79.1307 47.0603 79.3538 44.3672 82.2551 44.3672C85.1548 44.3672 86.1963 47.0603 88.0545 47.0603" stroke="white" stroke-width="2" stroke-linecap="round" stroke-linejoin="round"/>
<path d="M285.418 81.9759H206.473C203.119 81.9759 200.4 84.6945 200.4 88.0482V203.422C200.4 206.775 203.119 209.494 206.473 209.494H285.418C288.772 209.494 291.491 206.775 291.491 203.422V88.0482C291.491 84.6945 288.772 81.9759 285.418 81.9759Z" fill="#F0F1F2"/>
<path d="M279.345 182.169H212.545C210.869 182.169 209.509 183.528 209.509 185.205V197.349C209.509 199.026 210.869 200.386 212.545 200.386H279.345C281.022 200.386 282.382 199.026 282.382 197.349V185.205C282.382 183.528 281.022 182.169 279.345 182.169Z" fill="#399C97"/>
<path d="M268.718 91.0844H214.064C211.548 91.0844 209.509 93.1233 209.509 95.6386C209.509 98.1538 211.548 100.193 214.064 100.193H268.718C271.234 100.193 273.273 98.1538 273.273 95.6386C273.273 93.1233 271.234 91.0844 268.718 91.0844Z" fill="#9FA5AB"/>
<path d="M261.127 109.301H212.545C210.869 109.301 209.509 110.661 209.509 112.337C209.509 114.014 210.869 115.373 212.545 115.373H261.127C262.804 115.373 264.164 114.014 264.164 112.337C264.164 110.661 262.804 109.301 261.127 109.301Z" fill="#D2D5D9"/>
<path d="M250.5 121.446H212.545C210.869 121.446 209.509 122.805 209.509 124.482C209.509 126.159 210.869 127.518 212.545 127.518H250.5C252.177 127.518 253.536 126.159 253.536 124.482C253.536 122.805 252.177 121.446 250.5 121.446Z" fill="#D2D5D9"/>
<path d="M185.218 81.9759H54.6545C51.3006 81.9759 48.5818 84.6945 48.5818 88.0482V185.205C48.5818 188.558 51.3006 191.277 54.6545 191.277H185.218C188.572 191.277 191.291 188.558 191.291 185.205V88.0482C191.291 84.6945 188.572 81.9759 185.218 81.9759Z" fill="#F0F1F2"/>
<path d="M97.1636 91.0844H60.7273C59.0503 91.0844 57.6909 92.4437 57.6909 94.1205V129.036C57.6909 130.713 59.0503 132.072 60.7273 132.072H97.1636C98.8406 132.072 100.2 130.713 100.2 129.036V94.1205C100.2 92.4437 98.8406 91.0844 97.1636 91.0844Z" fill="#D2D5D9"/>
<path d="M154.855 98.6747H112.345C110.669 98.6747 109.309 100.034 109.309 101.711C109.309 103.388 110.669 104.747 112.345 104.747H154.855C156.531 104.747 157.891 103.388 157.891 101.711C157.891 100.034 156.531 98.6747 154.855 98.6747Z" fill="#D2D5D9"/>
<path d="M150.3 113.855H112.345C110.669 113.855 109.309 115.215 109.309 116.892C109.309 118.568 110.669 119.928 112.345 119.928H150.3C151.977 119.928 153.336 118.568 153.336 116.892C153.336 115.215 151.977 113.855 150.3 113.855Z" fill="#D2D5D9"/>
<path d="M97.1636 141.181H60.7273C59.0503 141.181 57.6909 142.54 57.6909 144.217V179.133C57.6909 180.809 59.0503 182.169 60.7273 182.169H97.1636C98.8406 182.169 100.2 180.809 100.2 179.133V144.217C100.2 142.54 98.8406 141.181 97.1636 141.181Z" fill="#D2D5D9"/>
<path d="M154.855 148.771H112.345C110.669 148.771 109.309 150.13 109.309 151.807C109.309 153.484 110.669 154.843 112.345 154.843H154.855C156.531 154.843 157.891 153.484 157.891 151.807C157.891 150.13 156.531 148.771 154.855 148.771Z" fill="#D2D5D9"/>
<path d="M150.3 163.952H112.345C110.669 163.952 109.309 165.311 109.309 166.988C109.309 168.665 110.669 170.024 112.345 170.024H150.3C151.977 170.024 153.336 168.665 153.336 166.988C153.336 165.311 151.977 163.952 150.3 163.952Z" fill="#D2D5D9"/>
<g filter="url(#filter1_dd_207_38)">
<path d="M142.102 119.928H23.38C20.5292 119.928 18.2182 123.855 18.2182 128.699V190.096C18.2182 194.941 20.5292 198.867 23.38 198.867H142.102C144.953 198.867 147.264 194.941 147.264 190.096V128.699C147.264 123.855 144.953 119.928 142.102 119.928Z" fill="white"/>
<path d="M74.0873 124.396H30.6673C28.8226 124.396 27.3273 125.857 27.3273 127.659V189.647C27.3273 191.449 28.8226 192.91 30.6673 192.91H74.0873C75.9319 192.91 77.4273 191.449 77.4273 189.647V127.659C77.4273 125.857 75.9319 124.396 74.0873 124.396Z" fill="#F0F1F2"/>
<path d="M49.3245 183.759C49.1275 183.759 48.9386 183.836 48.7994 183.971C48.6601 184.107 48.5818 184.29 48.5818 184.482C48.5818 184.674 48.6601 184.858 48.7994 184.993C48.9386 185.129 49.1275 185.205 49.3245 185.205V183.759ZM64.5392 185.205C64.7362 185.205 64.9251 185.129 65.0643 184.993C65.2036 184.858 65.2818 184.674 65.2818 184.482C65.2818 184.29 65.2036 184.107 65.0643 183.971C64.9251 183.836 64.7362 183.759 64.5392 183.759V185.205ZM49.3245 184.482V185.205H54.3625V183.759H49.3245V184.482ZM54.3625 185.205C55.4922 185.205 56.387 184.869 56.9632 184.241C57.5376 183.614 57.6973 182.804 57.5718 182.052C57.3236 180.573 55.9438 179.133 53.9184 179.133V180.578C55.1593 180.578 55.9648 181.451 56.1055 182.285C56.1721 182.691 56.077 183.037 55.8545 183.278C55.6357 183.517 55.1964 183.759 54.3625 183.759V185.205ZM53.9184 179.133C53.4144 179.133 52.8895 179.2 52.5139 179.481C52.2937 179.641 52.1412 179.874 52.085 180.137C52.0299 180.396 52.0784 180.636 52.1516 180.828C52.2895 181.195 52.5776 181.539 52.8838 181.833C53.2491 182.175 53.6436 182.486 54.0629 182.763C54.9692 183.374 56.1198 183.978 57.3056 184.432C58.4809 184.882 59.7447 185.205 60.8648 185.205V183.759C60.0062 183.759 58.9383 183.504 57.8485 183.087C56.814 182.691 55.8281 182.184 54.9092 181.575C54.5612 181.346 54.2335 181.088 53.9298 180.806C53.6721 180.559 53.5704 180.395 53.5447 180.328C53.5352 180.303 53.558 180.345 53.5399 180.428C53.5238 180.506 53.4805 180.577 53.4173 180.628C53.3821 180.655 53.4743 180.578 53.9184 180.578V179.133ZM60.8648 185.205H64.5392V183.759H60.8639V185.205H60.8648Z" fill="#336FB2"/>
<path d="M38.3823 186.544C38.2685 186.659 38.1147 186.723 37.9544 186.723C37.7941 186.723 37.6402 186.659 37.5264 186.544L36.8528 185.867C36.7904 185.805 36.7153 185.757 36.6327 185.726C36.5501 185.696 36.4619 185.684 36.3744 185.691L35.429 185.771C35.2692 185.784 35.1107 185.733 34.9878 185.629C34.8649 185.524 34.7878 185.375 34.7731 185.213L34.6862 184.256C34.6782 184.167 34.6513 184.081 34.6074 184.004C34.5636 183.927 34.5037 183.861 34.432 183.809L33.6569 183.254C33.5261 183.161 33.437 183.018 33.4092 182.858C33.3814 182.698 33.4172 182.534 33.5086 182.4L34.0497 181.61C34.0997 181.537 34.1335 181.454 34.1488 181.366C34.164 181.278 34.1602 181.188 34.1378 181.102L33.8959 180.173C33.8549 180.016 33.8769 179.848 33.9571 179.708C34.0373 179.567 34.1691 179.464 34.3238 179.421L35.2394 179.169C35.3241 179.145 35.4028 179.103 35.4701 179.046C35.5373 178.989 35.5916 178.918 35.6291 178.837L36.0339 177.967C36.1024 177.821 36.2253 177.707 36.3759 177.652C36.5265 177.596 36.6927 177.603 36.8382 177.671L37.6996 178.073C37.8614 178.149 38.0474 178.149 38.2091 178.073L39.0705 177.671C39.2161 177.603 39.3822 177.596 39.5328 177.652C39.6835 177.707 39.8064 177.821 39.8748 177.967L40.2797 178.837C40.3172 178.918 40.3714 178.989 40.4387 179.046C40.5059 179.103 40.5846 179.145 40.6694 179.169L41.5849 179.421C41.7396 179.464 41.8715 179.567 41.9516 179.708C42.0318 179.848 42.0538 180.016 42.0129 180.173L41.7709 181.102C41.7486 181.188 41.7449 181.278 41.7603 181.366C41.7756 181.454 41.8095 181.537 41.8597 181.61L42.4007 182.4C42.4921 182.534 42.5277 182.698 42.4998 182.858C42.4719 183.018 42.3828 183.161 42.2518 183.254L41.4767 183.809C41.405 183.861 41.3452 183.927 41.3013 184.004C41.2574 184.081 41.2306 184.167 41.2226 184.256L41.1356 185.213C41.121 185.375 41.0438 185.524 40.9209 185.629C40.7981 185.733 40.6395 185.784 40.4797 185.771L39.5344 185.691C39.4468 185.684 39.3587 185.696 39.2761 185.726C39.1935 185.757 39.1184 185.805 39.0559 185.867L38.3823 186.544Z" fill="#E9AF58"/>
<path d="M53.4738 155.674H34.5808C33.9287 155.674 33.4 157.008 33.4 158.653C33.4 160.298 33.9287 161.632 34.5808 161.632H53.4738C54.1259 161.632 54.6546 160.298 54.6546 158.653C54.6546 157.008 54.1259 155.674 53.4738 155.674Z" fill="#D2D5D9"/>
<path d="M59.2091 166.1H34.9182C34.0797 166.1 33.4 167.434 33.4 169.079C33.4 170.724 34.0797 172.058 34.9182 172.058H59.2091C60.0476 172.058 60.7273 170.724 60.7273 169.079C60.7273 167.434 60.0476 166.1 59.2091 166.1Z" fill="#D2D5D9"/>
<path d="M64.9445 145.248H35.2556C34.2308 145.248 33.4 146.582 33.4 148.227C33.4 149.872 34.2308 151.206 35.2556 151.206H64.9445C65.9693 151.206 66.8 149.872 66.8 148.227C66.8 146.582 65.9693 145.248 64.9445 145.248Z" fill="#D2D5D9"/>
<path d="M134.815 124.396H91.3946C89.5499 124.396 88.0546 125.857 88.0546 127.659V189.647C88.0546 191.449 89.5499 192.91 91.3946 192.91H134.815C136.659 192.91 138.155 191.449 138.155 189.647V127.659C138.155 125.857 136.659 124.396 134.815 124.396Z" fill="#F0F1F2"/>
<path d="M111.57 183.759C111.373 183.759 111.184 183.836 111.045 183.971C110.906 184.107 110.827 184.29 110.827 184.482C110.827 184.674 110.906 184.858 111.045 184.993C111.184 185.129 111.373 185.205 111.57 185.205V183.759ZM126.785 185.205C126.982 185.205 127.17 185.129 127.31 184.993C127.449 184.858 127.527 184.674 127.527 184.482C127.527 184.29 127.449 184.107 127.31 183.971C127.17 183.836 126.982 183.759 126.785 183.759V185.205ZM111.57 184.482V185.205H116.608V183.759H111.57V184.482ZM116.608 185.205C117.738 185.205 118.632 184.869 119.209 184.241C119.783 183.614 119.943 182.804 119.817 182.052C119.569 180.573 118.189 179.133 116.164 179.133V180.578C117.405 180.578 118.21 181.451 118.351 182.285C118.417 182.691 118.322 183.037 118.1 183.278C117.881 183.517 117.442 183.759 116.608 183.759V185.205ZM116.164 179.133C115.66 179.133 115.135 179.2 114.759 179.481C114.539 179.641 114.387 179.874 114.33 180.137C114.275 180.396 114.324 180.636 114.397 180.828C114.535 181.195 114.823 181.539 115.129 181.833C115.495 182.175 115.889 182.486 116.308 182.763C117.215 183.374 118.365 183.978 119.551 184.432C120.726 184.882 121.99 185.205 123.11 185.205V183.759C122.252 183.759 121.184 183.504 120.094 183.087C119.059 182.691 118.074 182.184 117.155 181.575C116.807 181.346 116.479 181.088 116.175 180.806C115.918 180.559 115.816 180.395 115.79 180.328C115.781 180.303 115.803 180.345 115.785 180.428C115.769 180.506 115.726 180.577 115.663 180.628C115.627 180.655 115.72 180.578 116.164 180.578V179.133ZM123.11 185.205H126.785V183.759H123.109V185.205H123.11Z" fill="#336FB2"/>
<path d="M100.628 186.544C100.514 186.659 100.36 186.723 100.2 186.723C100.04 186.723 99.8857 186.659 99.7719 186.544L99.0983 185.867C99.0358 185.805 98.9607 185.757 98.8781 185.726C98.7955 185.696 98.7074 185.684 98.6199 185.691L97.6745 185.771C97.5147 185.784 97.3561 185.733 97.2333 185.629C97.1104 185.524 97.0333 185.375 97.0186 185.213L96.9316 184.256C96.9236 184.167 96.8968 184.081 96.8529 184.004C96.809 183.927 96.7492 183.861 96.6775 183.809L95.9024 183.254C95.7715 183.161 95.6825 183.018 95.6547 182.858C95.6269 182.698 95.6626 182.534 95.7541 182.4L96.2951 181.61C96.3452 181.537 96.379 181.454 96.3942 181.366C96.4095 181.278 96.4057 181.188 96.3833 181.102L96.1413 180.173C96.1004 180.016 96.1224 179.848 96.2026 179.708C96.2828 179.567 96.4146 179.464 96.5693 179.421L97.4849 179.169C97.5696 179.145 97.6483 179.103 97.7156 179.046C97.7828 178.989 97.8371 178.918 97.8745 178.837L98.2794 177.967C98.3479 177.821 98.4708 177.707 98.6214 177.652C98.772 177.596 98.9382 177.603 99.0837 177.671L99.9451 178.073C100.107 178.149 100.293 178.149 100.455 178.073L101.316 177.671C101.462 177.603 101.628 177.596 101.778 177.652C101.929 177.707 102.052 177.821 102.12 177.967L102.525 178.837C102.563 178.918 102.617 178.989 102.684 179.046C102.751 179.103 102.83 179.145 102.915 179.169L103.83 179.421C103.985 179.464 104.117 179.567 104.197 179.708C104.277 179.848 104.299 180.016 104.258 180.173L104.016 181.102C103.994 181.188 103.99 181.278 104.006 181.366C104.021 181.454 104.055 181.537 104.105 181.61L104.646 182.4C104.738 182.534 104.773 182.698 104.745 182.858C104.717 183.018 104.628 183.161 104.497 183.254L103.722 183.809C103.65 183.861 103.591 183.927 103.547 184.004C103.503 184.081 103.476 184.167 103.468 184.256L103.381 185.213C103.366 185.375 103.289 185.524 103.166 185.629C103.044 185.733 102.885 185.784 102.725 185.771L101.78 185.691C101.692 185.684 101.604 185.696 101.522 185.726C101.439 185.757 101.364 185.805 101.301 185.867L100.628 186.544Z" fill="#E9AF58"/>
<path d="M115.719 155.674H96.8263C96.1742 155.674 95.6455 157.008 95.6455 158.653C95.6455 160.298 96.1742 161.632 96.8263 161.632H115.719C116.371 161.632 116.9 160.298 116.9 158.653C116.9 157.008 116.371 155.674 115.719 155.674Z" fill="#D2D5D9"/>
<path d="M121.455 166.1H97.1637C96.3252 166.1 95.6455 167.434 95.6455 169.079C95.6455 170.724 96.3252 172.058 97.1637 172.058H121.455C122.293 172.058 122.973 170.724 122.973 169.079C122.973 167.434 122.293 166.1 121.455 166.1Z" fill="#D2D5D9"/>
<path d="M127.19 145.248H97.5011C96.4763 145.248 95.6455 146.582 95.6455 148.227C95.6455 149.872 96.4763 151.206 97.5011 151.206H127.19C128.215 151.206 129.046 149.872 129.046 148.227C129.046 146.582 128.215 145.248 127.19 145.248Z" fill="#D2D5D9"/>
</g>
<path d="M43.6404 131.355C43.6215 131.187 43.5433 131.057 43.406 130.964C43.2687 130.871 43.0959 130.824 42.8875 130.824C42.7384 130.824 42.6094 130.848 42.5005 130.895C42.3916 130.941 42.3069 131.005 42.2466 131.087C42.1874 131.167 42.1578 131.259 42.1578 131.362C42.1578 131.449 42.1779 131.523 42.2182 131.586C42.2596 131.649 42.3134 131.701 42.3797 131.744C42.4472 131.785 42.5194 131.82 42.5964 131.849C42.6733 131.876 42.7473 131.898 42.8183 131.916L43.1734 132.008C43.2894 132.037 43.4084 132.075 43.5303 132.124C43.6522 132.172 43.7653 132.236 43.8694 132.316C43.9736 132.395 44.0576 132.493 44.1216 132.61C44.1867 132.728 44.2192 132.868 44.2192 133.031C44.2192 133.237 44.166 133.42 44.0594 133.58C43.9541 133.74 43.8008 133.866 43.5996 133.958C43.3995 134.05 43.1574 134.097 42.8733 134.097C42.6011 134.097 42.3655 134.053 42.1667 133.967C41.9678 133.88 41.8121 133.758 41.6997 133.599C41.5872 133.44 41.5251 133.25 41.5133 133.031H42.0637C42.0743 133.163 42.117 133.272 42.1915 133.36C42.2673 133.446 42.3638 133.511 42.4809 133.553C42.5993 133.595 42.7289 133.615 42.8698 133.615C43.0249 133.615 43.1628 133.591 43.2835 133.543C43.4054 133.493 43.5013 133.424 43.5711 133.337C43.641 133.248 43.6759 133.144 43.6759 133.026C43.6759 132.918 43.6451 132.83 43.5836 132.761C43.5232 132.693 43.4409 132.636 43.3368 132.591C43.2338 132.546 43.1172 132.506 42.987 132.472L42.5573 132.355C42.2661 132.275 42.0353 132.159 41.8648 132.005C41.6956 131.851 41.6109 131.647 41.6109 131.394C41.6109 131.185 41.6677 131.002 41.7814 130.845C41.895 130.689 42.0489 130.568 42.243 130.481C42.4371 130.394 42.6561 130.35 42.9 130.35C43.1462 130.35 43.3634 130.393 43.5516 130.48C43.741 130.566 43.8902 130.685 43.9991 130.837C44.108 130.987 44.1648 131.16 44.1695 131.355H43.6404ZM47.0303 131.309V131.735H45.5406V131.309H47.0303ZM45.9401 130.655H46.471V133.235C46.471 133.338 46.4864 133.416 46.5172 133.468C46.548 133.519 46.5876 133.554 46.6361 133.573C46.6859 133.59 46.7397 133.599 46.7977 133.599C46.8403 133.599 46.8776 133.596 46.9096 133.59C46.9415 133.585 46.9664 133.58 46.9842 133.576L47.08 134.015C47.0493 134.027 47.0055 134.039 46.9486 134.05C46.8918 134.063 46.8208 134.07 46.7356 134.072C46.5959 134.074 46.4657 134.049 46.345 133.997C46.2242 133.945 46.1266 133.864 46.052 133.756C45.9774 133.647 45.9401 133.51 45.9401 133.345V130.655ZM49.3363 134.097C49.1634 134.097 49.0072 134.065 48.8675 134.001C48.7278 133.936 48.6172 133.841 48.5355 133.718C48.455 133.595 48.4148 133.444 48.4148 133.266C48.4148 133.112 48.4443 132.985 48.5035 132.886C48.5627 132.786 48.6426 132.707 48.7432 132.649C48.8438 132.591 48.9563 132.548 49.0806 132.518C49.2049 132.488 49.3315 132.466 49.4606 132.451C49.6239 132.432 49.7565 132.416 49.8583 132.404C49.9601 132.391 50.0341 132.371 50.0802 132.342C50.1264 132.314 50.1495 132.268 50.1495 132.204V132.191C50.1495 132.036 50.1057 131.916 50.0181 131.831C49.9317 131.746 49.8027 131.703 49.631 131.703C49.4523 131.703 49.3114 131.743 49.2084 131.822C49.1066 131.9 49.0362 131.987 48.9971 132.083L48.4982 131.969C48.5574 131.804 48.6438 131.67 48.7574 131.568C48.8723 131.465 49.0042 131.391 49.1534 131.344C49.3025 131.297 49.4594 131.273 49.6239 131.273C49.7328 131.273 49.8482 131.286 49.9701 131.312C50.0933 131.337 50.2081 131.383 50.3146 131.451C50.4223 131.518 50.5105 131.615 50.5792 131.74C50.6478 131.865 50.6822 132.026 50.6822 132.225V134.036H50.1637V133.663H50.1424C50.1081 133.732 50.0566 133.799 49.9879 133.866C49.9192 133.932 49.8311 133.987 49.7233 134.031C49.6156 134.075 49.4866 134.097 49.3363 134.097ZM49.4517 133.67C49.5985 133.67 49.7239 133.641 49.8281 133.583C49.9335 133.525 50.0134 133.45 50.0678 133.356C50.1234 133.261 50.1513 133.16 50.1513 133.052V132.701C50.1323 132.72 50.0956 132.738 50.0412 132.754C49.9879 132.77 49.9269 132.783 49.8583 132.795C49.7896 132.806 49.7228 132.816 49.6576 132.825C49.5925 132.833 49.5381 132.841 49.4943 132.847C49.3913 132.86 49.2972 132.881 49.212 132.912C49.1279 132.943 49.0605 132.987 49.0096 133.045C48.9599 133.102 48.935 133.178 48.935 133.273C48.935 133.404 48.9835 133.503 49.0806 133.571C49.1777 133.637 49.3014 133.67 49.4517 133.67ZM52.3143 134.036V131.309H52.8274V131.742H52.8558C52.9055 131.595 52.9931 131.48 53.1186 131.396C53.2453 131.311 53.3885 131.268 53.5483 131.268C53.5814 131.268 53.6205 131.269 53.6655 131.272C53.7116 131.274 53.7477 131.277 53.7738 131.28V131.788C53.7525 131.782 53.7146 131.776 53.6602 131.769C53.6057 131.76 53.5513 131.756 53.4968 131.756C53.3713 131.756 53.2595 131.783 53.1612 131.836C53.0642 131.888 52.9872 131.961 52.9304 132.055C52.8736 132.147 52.8452 132.252 52.8452 132.371V134.036H52.3143ZM56.5924 131.309V131.735H55.1027V131.309H56.5924ZM55.5022 130.655H56.0331V133.235C56.0331 133.338 56.0485 133.416 56.0793 133.468C56.1101 133.519 56.1497 133.554 56.1983 133.573C56.248 133.59 56.3018 133.599 56.3598 133.599C56.4024 133.599 56.4397 133.596 56.4717 133.59C56.5037 133.585 56.5285 133.58 56.5463 133.576L56.6421 134.015C56.6114 134.027 56.5676 134.039 56.5108 134.05C56.4539 134.063 56.3829 134.07 56.2977 134.072C56.158 134.074 56.0278 134.049 55.9071 133.997C55.7863 133.945 55.6887 133.864 55.6141 133.756C55.5395 133.647 55.5022 133.51 55.5022 133.345V130.655ZM59.2508 134.091C58.9821 134.091 58.7507 134.034 58.5566 133.919C58.3636 133.803 58.2145 133.64 58.1091 133.431C58.005 133.22 57.9529 132.973 57.9529 132.69C57.9529 132.411 58.005 132.165 58.1091 131.952C58.2145 131.739 58.3613 131.572 58.5495 131.453C58.7389 131.333 58.9602 131.273 59.2135 131.273C59.3674 131.273 59.5166 131.299 59.661 131.35C59.8054 131.401 59.935 131.48 60.0498 131.589C60.1647 131.698 60.2552 131.84 60.3215 132.014C60.3878 132.187 60.4209 132.397 60.4209 132.644V132.832H58.253V132.435H59.9007C59.9007 132.295 59.8723 132.171 59.8155 132.063C59.7586 131.955 59.6787 131.869 59.5758 131.806C59.474 131.743 59.3544 131.712 59.2171 131.712C59.0679 131.712 58.9377 131.749 58.8265 131.822C58.7164 131.894 58.6312 131.989 58.5708 132.106C58.5116 132.222 58.482 132.348 58.482 132.484V132.795C58.482 132.977 58.514 133.132 58.5779 133.26C58.643 133.388 58.7335 133.486 58.8496 133.553C58.9656 133.619 59.1011 133.653 59.2562 133.653C59.3568 133.653 59.4485 133.638 59.5314 133.61C59.6142 133.58 59.6858 133.537 59.7462 133.479C59.8066 133.421 59.8527 133.349 59.8847 133.264L60.3872 133.354C60.3469 133.502 60.2747 133.632 60.1706 133.743C60.0676 133.853 59.938 133.939 59.7817 134.001C59.6267 134.061 59.4497 134.091 59.2508 134.091ZM61.935 134.036V131.309H62.4481V131.742H62.4765C62.5262 131.595 62.6138 131.48 62.7393 131.396C62.866 131.311 63.0092 131.268 63.169 131.268C63.2021 131.268 63.2412 131.269 63.2862 131.272C63.3323 131.274 63.3684 131.277 63.3945 131.28V131.788C63.3732 131.782 63.3353 131.776 63.2809 131.769C63.2264 131.76 63.172 131.756 63.1175 131.756C62.992 131.756 62.8802 131.783 62.7819 131.836C62.6849 131.888 62.6079 131.961 62.5511 132.055C62.4943 132.147 62.4659 132.252 62.4659 132.371V134.036H61.935Z" fill="black"/>
<path d="M108.563 134.036V130.4H109.859C110.142 130.4 110.376 130.451 110.562 130.554C110.748 130.657 110.887 130.798 110.979 130.977C111.072 131.154 111.118 131.354 111.118 131.577C111.118 131.801 111.071 132.002 110.978 132.181C110.885 132.358 110.746 132.499 110.559 132.603C110.373 132.706 110.139 132.758 109.857 132.758H108.966V132.293H109.808C109.986 132.293 110.131 132.262 110.243 132.2C110.354 132.137 110.436 132.052 110.488 131.945C110.54 131.837 110.566 131.714 110.566 131.577C110.566 131.44 110.54 131.318 110.488 131.211C110.436 131.105 110.353 131.021 110.241 130.961C110.13 130.9 109.983 130.87 109.8 130.87H109.112V134.036H108.563ZM112.644 134.036V131.309H113.157V131.742H113.185C113.235 131.595 113.322 131.48 113.448 131.396C113.575 131.311 113.718 131.268 113.878 131.268C113.911 131.268 113.95 131.269 113.995 131.272C114.041 131.274 114.077 131.277 114.103 131.28V131.788C114.082 131.782 114.044 131.776 113.989 131.769C113.935 131.76 113.881 131.756 113.826 131.756C113.701 131.756 113.589 131.783 113.491 131.836C113.393 131.888 113.316 131.961 113.26 132.055C113.203 132.147 113.174 132.252 113.174 132.371V134.036H112.644ZM116.539 134.091C116.283 134.091 116.06 134.033 115.869 133.915C115.679 133.798 115.531 133.634 115.425 133.424C115.32 133.213 115.267 132.967 115.267 132.685C115.267 132.402 115.32 132.155 115.425 131.943C115.531 131.731 115.679 131.566 115.869 131.449C116.06 131.332 116.283 131.273 116.539 131.273C116.794 131.273 117.017 131.332 117.208 131.449C117.399 131.566 117.547 131.731 117.652 131.943C117.757 132.155 117.81 132.402 117.81 132.685C117.81 132.967 117.757 133.213 117.652 133.424C117.547 133.634 117.399 133.798 117.208 133.915C117.017 134.033 116.794 134.091 116.539 134.091ZM116.54 133.646C116.706 133.646 116.843 133.602 116.952 133.514C117.061 133.427 117.142 133.31 117.194 133.164C117.247 133.019 117.274 132.858 117.274 132.683C117.274 132.509 117.247 132.349 117.194 132.204C117.142 132.057 117.061 131.939 116.952 131.85C116.843 131.762 116.706 131.717 116.54 131.717C116.374 131.717 116.235 131.762 116.125 131.85C116.016 131.939 115.935 132.057 115.882 132.204C115.83 132.349 115.804 132.509 115.804 132.683C115.804 132.858 115.83 133.019 115.882 133.164C115.935 133.31 116.016 133.427 116.125 133.514C116.235 133.602 116.374 133.646 116.54 133.646Z" fill="black"/>
<defs>
<filter id="filter0_dd_207_38" x="21.47" y="16.9513" width="297.133" height="221.209" filterUnits="userSpaceOnUse" color-interpolation-filters="sRGB">
<feFlood flood-opacity="0" result="BackgroundImageFix"/>
<feColorMatrix in="SourceAlpha" type="matrix" values="0 0 0 0 0 0 0 0 0 0 0 0 0 0 0 0 0 0 127 0" result="hardAlpha"/>
<feOffset dy="1.556"/>
<feGaussianBlur stdDeviation="5.965"/>
<feColorMatrix type="matrix" values="0 0 0 0 0 0 0 0 0 0 0 0 0 0 0 0 0 0 0.09 0"/>
<feBlend mode="normal" in2="BackgroundImageFix" result="effect1_dropShadow_207_38"/>
<feColorMatrix in="SourceAlpha" type="matrix" values="0 0 0 0 0 0 0 0 0 0 0 0 0 0 0 0 0 0 127 0" result="hardAlpha"/>
<feOffset dy="1.037"/>
<feGaussianBlur stdDeviation="0.778"/>
<feColorMatrix type="matrix" values="0 0 0 0 0 0 0 0 0 0 0 0 0 0 0 0 0 0 0.12 0"/>
<feBlend mode="normal" in2="effect1_dropShadow_207_38" result="effect2_dropShadow_207_38"/>
<feBlend mode="normal" in="SourceGraphic" in2="effect2_dropShadow_207_38" result="shape"/>
</filter>
<filter id="filter1_dd_207_38" x="6.2882" y="109.554" width="152.905" height="102.8" filterUnits="userSpaceOnUse" color-interpolation-filters="sRGB">
<feFlood flood-opacity="0" result="BackgroundImageFix"/>
<feColorMatrix in="SourceAlpha" type="matrix" values="0 0 0 0 0 0 0 0 0 0 0 0 0 0 0 0 0 0 127 0" result="hardAlpha"/>
<feOffset dy="1.556"/>
<feGaussianBlur stdDeviation="5.965"/>
<feColorMatrix type="matrix" values="0 0 0 0 0 0 0 0 0 0 0 0 0 0 0 0 0 0 0.09 0"/>
<feBlend mode="normal" in2="BackgroundImageFix" result="effect1_dropShadow_207_38"/>
<feColorMatrix in="SourceAlpha" type="matrix" values="0 0 0 0 0 0 0 0 0 0 0 0 0 0 0 0 0 0 127 0" result="hardAlpha"/>
<feOffset dy="1.037"/>
<feGaussianBlur stdDeviation="0.778"/>
<feColorMatrix type="matrix" values="0 0 0 0 0 0 0 0 0 0 0 0 0 0 0 0 0 0 0.12 0"/>
<feBlend mode="normal" in2="effect1_dropShadow_207_38" result="effect2_dropShadow_207_38"/>
<feBlend mode="normal" in="SourceGraphic" in2="effect2_dropShadow_207_38" result="shape"/>
</filter>
</defs>
</svg>
