<svg width="220" height="166" viewBox="0 0 220 166" fill="none" xmlns="http://www.w3.org/2000/svg">
<g filter="url(#filter0_dd_207_38)">
<path d="M198 18H26C24.9391 18 23.9217 18.4214 23.1716 19.1716C22.4214 19.9217 22 20.9391 22 22V144C22 145.061 22.4214 146.078 23.1716 146.828C23.9217 147.579 24.9391 148 26 148H198C199.061 148 200.078 147.579 200.828 146.828C201.579 146.078 202 145.061 202 144V22C202 20.9391 201.579 19.9217 200.828 19.1716C200.078 18.4214 199.061 18 198 18Z" fill="white"/>
</g>
<path d="M198 18H26C24.9391 18 23.9217 18.4214 23.1716 19.1716C22.4214 19.9217 22 20.9391 22 22V42H202V22C202 20.9391 201.579 19.9217 200.828 19.1716C200.078 18.4214 199.061 18 198 18Z" fill="#00735C"/>
<path d="M34 30.774C35.763 30.774 35.861 29 37.918 29C40.025 29 40.025 31 42.082 31C44.139 31 44.237 29.226 46.196 29.226C48.156 29.226 48.106 31 50.114 31C52.122 31 52.269 29.226 54.18 29.226C56.09 29.226 56.776 31 58 31" stroke="white" stroke-width="2" stroke-linecap="round" stroke-linejoin="round"/>
<path d="M188 54H136C133.791 54 132 55.7909 132 58V134C132 136.209 133.791 138 136 138H188C190.209 138 192 136.209 192 134V58C192 55.7909 190.209 54 188 54Z" fill="#F0F1F2"/>
<path d="M184 120H140C138.895 120 138 120.895 138 122V130C138 131.105 138.895 132 140 132H184C185.105 132 186 131.105 186 130V122C186 120.895 185.105 120 184 120Z" fill="#399C97"/>
<path d="M177 60H141C139.343 60 138 61.3431 138 63C138 64.6569 139.343 66 141 66H177C178.657 66 180 64.6569 180 63C180 61.3431 178.657 60 177 60Z" fill="#9FA5AB"/>
<path d="M172 72H140C138.895 72 138 72.8954 138 74C138 75.1046 138.895 76 140 76H172C173.105 76 174 75.1046 174 74C174 72.8954 173.105 72 172 72Z" fill="#D2D5D9"/>
<path d="M165 80H140C138.895 80 138 80.8954 138 82C138 83.1046 138.895 84 140 84H165C166.105 84 167 83.1046 167 82C167 80.8954 166.105 80 165 80Z" fill="#D2D5D9"/>
<path d="M122 54H36C33.7909 54 32 55.7909 32 58V122C32 124.209 33.7909 126 36 126H122C124.209 126 126 124.209 126 122V58C126 55.7909 124.209 54 122 54Z" fill="#F0F1F2"/>
<path d="M64 60H40C38.8954 60 38 60.8954 38 62V85C38 86.1046 38.8954 87 40 87H64C65.1046 87 66 86.1046 66 85V62C66 60.8954 65.1046 60 64 60Z" fill="#D2D5D9"/>
<path d="M102 65H74C72.8954 65 72 65.8954 72 67C72 68.1046 72.8954 69 74 69H102C103.105 69 104 68.1046 104 67C104 65.8954 103.105 65 102 65Z" fill="#D2D5D9"/>
<path d="M99 75H74C72.8954 75 72 75.8954 72 77C72 78.1046 72.8954 79 74 79H99C100.105 79 101 78.1046 101 77C101 75.8954 100.105 75 99 75Z" fill="#D2D5D9"/>
<path d="M64 93H40C38.8954 93 38 93.8954 38 95V118C38 119.105 38.8954 120 40 120H64C65.1046 120 66 119.105 66 118V95C66 93.8954 65.1046 93 64 93Z" fill="#D2D5D9"/>
<path d="M102 98H74C72.8954 98 72 98.8954 72 100C72 101.105 72.8954 102 74 102H102C103.105 102 104 101.105 104 100C104 98.8954 103.105 98 102 98Z" fill="#D2D5D9"/>
<path d="M99 108H74C72.8954 108 72 108.895 72 110C72 111.105 72.8954 112 74 112H99C100.105 112 101 111.105 101 110C101 108.895 100.105 108 99 108Z" fill="#D2D5D9"/>
<g filter="url(#filter1_dd_207_38)">
<path d="M93.6 79H15.4C13.5222 79 12 81.5868 12 84.7778V125.222C12 128.413 13.5222 131 15.4 131H93.6C95.4778 131 97 128.413 97 125.222V84.7778C97 81.5868 95.4778 79 93.6 79Z" fill="white"/>
<path d="M48.8 81.9434H20.2C18.985 81.9434 18 82.9056 18 84.0926V124.926C18 126.113 18.985 127.075 20.2 127.075H48.8C50.015 127.075 51 126.113 51 124.926V84.0926C51 82.9056 50.015 81.9434 48.8 81.9434Z" fill="#F0F1F2"/>
<path d="M32.4892 121.048C32.3594 121.048 32.235 121.098 32.1433 121.187C32.0515 121.277 32 121.398 32 121.524C32 121.65 32.0515 121.771 32.1433 121.861C32.235 121.95 32.3594 122 32.4892 122V121.048ZM42.5108 122C42.6406 122 42.765 121.95 42.8567 121.861C42.9485 121.771 43 121.65 43 121.524C43 121.398 42.9485 121.277 42.8567 121.187C42.765 121.098 42.6406 121.048 42.5108 121.048V122ZM32.4892 121.524V122H35.8076V121.048H32.4892V121.524ZM35.8076 122C36.5517 122 37.1411 121.779 37.5207 121.365C37.899 120.952 38.0042 120.418 37.9215 119.923C37.7581 118.949 36.8492 118 35.5151 118V118.952C36.3325 118.952 36.863 119.527 36.9557 120.077C36.9995 120.344 36.9369 120.572 36.7903 120.731C36.6463 120.888 36.3569 121.048 35.8076 121.048V122ZM35.5151 118C35.1831 118 34.8374 118.044 34.59 118.229C34.4449 118.335 34.3445 118.489 34.3075 118.661C34.2712 118.832 34.3031 118.991 34.3513 119.117C34.4421 119.359 34.6319 119.585 34.8336 119.779C35.0743 120.004 35.3341 120.209 35.6103 120.391C36.2072 120.794 36.9651 121.192 37.7462 121.491C38.5203 121.787 39.3528 122 40.0906 122V121.048C39.525 121.048 38.8216 120.88 38.1038 120.605C37.4224 120.344 36.773 120.01 36.1677 119.609C35.9385 119.458 35.7227 119.288 35.5226 119.102C35.3529 118.939 35.2858 118.831 35.2689 118.788C35.2627 118.771 35.2777 118.799 35.2658 118.853C35.2552 118.905 35.2266 118.951 35.185 118.985C35.1618 119.003 35.2226 118.952 35.5151 118.952V118ZM40.0906 122H42.5108V121.048H40.09V122H40.0906Z" fill="#336FB2"/>
<path d="M25.2818 122.882C25.2068 122.958 25.1055 123 24.9999 123C24.8943 123 24.793 122.958 24.718 122.882L24.2743 122.436C24.2332 122.395 24.1837 122.363 24.1293 122.343C24.0749 122.323 24.0168 122.315 23.9591 122.32L23.3365 122.373C23.2312 122.382 23.1268 122.348 23.0458 122.279C22.9649 122.21 22.9141 122.112 22.9044 122.005L22.8472 121.375C22.8419 121.316 22.8242 121.26 22.7953 121.209C22.7664 121.158 22.727 121.115 22.6798 121.081L22.1692 120.715C22.083 120.653 22.0244 120.56 22.0061 120.454C21.9878 120.349 22.0113 120.24 22.0715 120.153L22.4279 119.632C22.4609 119.584 22.4832 119.529 22.4932 119.471C22.5032 119.414 22.5007 119.354 22.486 119.298L22.3266 118.685C22.2996 118.582 22.3141 118.472 22.3669 118.379C22.4197 118.286 22.5066 118.218 22.6085 118.19L23.2115 118.024C23.2674 118.008 23.3192 117.981 23.3635 117.943C23.4078 117.905 23.4435 117.858 23.4682 117.805L23.7349 117.232C23.78 117.136 23.8609 117.061 23.9602 117.024C24.0594 116.988 24.1688 116.992 24.2647 117.037L24.8321 117.302C24.9386 117.352 25.0611 117.352 25.1676 117.302L25.7351 117.037C25.8309 116.992 25.9404 116.988 26.0396 117.024C26.1388 117.061 26.2197 117.136 26.2648 117.232L26.5315 117.805C26.5562 117.858 26.5919 117.905 26.6362 117.943C26.6805 117.981 26.7324 118.008 26.7882 118.024L27.3912 118.19C27.4932 118.218 27.58 118.286 27.6328 118.379C27.6856 118.472 27.7001 118.582 27.6731 118.685L27.5138 119.298C27.499 119.354 27.4966 119.414 27.5067 119.471C27.5168 119.529 27.5392 119.584 27.5722 119.632L27.9286 120.153C27.9888 120.24 28.0123 120.349 27.9939 120.454C27.9755 120.56 27.9168 120.653 27.8305 120.715L27.32 121.081C27.2727 121.115 27.2333 121.158 27.2044 121.209C27.1755 121.26 27.1579 121.316 27.1526 121.375L27.0953 122.005C27.0856 122.112 27.0348 122.21 26.9539 122.279C26.873 122.348 26.7685 122.382 26.6633 122.373L26.0406 122.32C25.9829 122.315 25.9249 122.323 25.8705 122.343C25.816 122.363 25.7666 122.395 25.7254 122.436L25.2818 122.882Z" fill="#E9AF58"/>
<path d="M35.2222 102.547H22.7778C22.3482 102.547 22 103.426 22 104.509C22 105.593 22.3482 106.472 22.7778 106.472H35.2222C35.6518 106.472 36 105.593 36 104.509C36 103.426 35.6518 102.547 35.2222 102.547Z" fill="#D2D5D9"/>
<path d="M39 109.415H23C22.4477 109.415 22 110.294 22 111.377C22 112.461 22.4477 113.34 23 113.34H39C39.5523 113.34 40 112.461 40 111.377C40 110.294 39.5523 109.415 39 109.415Z" fill="#D2D5D9"/>
<path d="M42.7778 95.6793H23.2222C22.5472 95.6793 22 96.5578 22 97.6415C22 98.7253 22.5472 99.6038 23.2222 99.6038H42.7778C43.4528 99.6038 44 98.7253 44 97.6415C44 96.5578 43.4528 95.6793 42.7778 95.6793Z" fill="#D2D5D9"/>
<path d="M88.8 81.9434H60.2C58.985 81.9434 58 82.9056 58 84.0926V124.926C58 126.113 58.985 127.075 60.2 127.075H88.8C90.015 127.075 91 126.113 91 124.926V84.0926C91 82.9056 90.015 81.9434 88.8 81.9434Z" fill="#F0F1F2"/>
<path d="M73.4892 121.048C73.3594 121.048 73.235 121.098 73.1433 121.187C73.0515 121.277 73 121.398 73 121.524C73 121.65 73.0515 121.771 73.1433 121.861C73.235 121.95 73.3594 122 73.4892 122V121.048ZM83.5108 122C83.6406 122 83.765 121.95 83.8567 121.861C83.9485 121.771 84 121.65 84 121.524C84 121.398 83.9485 121.277 83.8567 121.187C83.765 121.098 83.6406 121.048 83.5108 121.048V122ZM73.4892 121.524V122H76.8076V121.048H73.4892V121.524ZM76.8076 122C77.5517 122 78.1411 121.779 78.5207 121.365C78.899 120.952 79.0042 120.418 78.9215 119.923C78.7581 118.949 77.8492 118 76.5151 118V118.952C77.3325 118.952 77.863 119.527 77.9557 120.077C77.9995 120.344 77.9369 120.572 77.7903 120.731C77.6463 120.888 77.3569 121.048 76.8076 121.048V122ZM76.5151 118C76.1831 118 75.8374 118.044 75.59 118.229C75.4449 118.335 75.3445 118.489 75.3075 118.661C75.2712 118.832 75.3031 118.991 75.3513 119.117C75.4421 119.359 75.6319 119.585 75.8336 119.779C76.0743 120.004 76.3341 120.209 76.6103 120.391C77.2072 120.794 77.9651 121.192 78.7462 121.491C79.5203 121.787 80.3528 122 81.0906 122V121.048C80.525 121.048 79.8216 120.88 79.1038 120.605C78.4224 120.344 77.773 120.01 77.1677 119.609C76.9385 119.458 76.7227 119.288 76.5226 119.102C76.3529 118.939 76.2858 118.831 76.2689 118.788C76.2627 118.771 76.2777 118.799 76.2658 118.853C76.2552 118.905 76.2266 118.951 76.185 118.985C76.1618 119.003 76.2226 118.952 76.5151 118.952V118ZM81.0906 122H83.5108V121.048H81.09V122H81.0906Z" fill="#336FB2"/>
<path d="M66.2818 122.882C66.2068 122.958 66.1055 123 65.9999 123C65.8943 123 65.793 122.958 65.718 122.882L65.2743 122.436C65.2332 122.395 65.1837 122.363 65.1293 122.343C65.0749 122.323 65.0168 122.315 64.9591 122.32L64.3365 122.373C64.2312 122.382 64.1268 122.348 64.0458 122.279C63.9649 122.21 63.9141 122.112 63.9044 122.005L63.8472 121.375C63.8419 121.316 63.8242 121.26 63.7953 121.209C63.7664 121.158 63.727 121.115 63.6798 121.081L63.1692 120.715C63.083 120.653 63.0244 120.56 63.0061 120.454C62.9878 120.349 63.0113 120.24 63.0715 120.153L63.4279 119.632C63.4609 119.584 63.4832 119.529 63.4932 119.471C63.5032 119.414 63.5007 119.354 63.486 119.298L63.3266 118.685C63.2996 118.582 63.3141 118.472 63.3669 118.379C63.4197 118.286 63.5066 118.218 63.6085 118.19L64.2115 118.024C64.2674 118.008 64.3192 117.981 64.3635 117.943C64.4078 117.905 64.4435 117.858 64.4682 117.805L64.7349 117.232C64.78 117.136 64.8609 117.061 64.9602 117.024C65.0594 116.988 65.1688 116.992 65.2647 117.037L65.8321 117.302C65.9386 117.352 66.0611 117.352 66.1676 117.302L66.7351 117.037C66.8309 116.992 66.9404 116.988 67.0396 117.024C67.1388 117.061 67.2197 117.136 67.2648 117.232L67.5315 117.805C67.5562 117.858 67.5919 117.905 67.6362 117.943C67.6805 117.981 67.7324 118.008 67.7882 118.024L68.3912 118.19C68.4932 118.218 68.58 118.286 68.6328 118.379C68.6856 118.472 68.7001 118.582 68.6731 118.685L68.5138 119.298C68.499 119.354 68.4966 119.414 68.5067 119.471C68.5168 119.529 68.5392 119.584 68.5722 119.632L68.9286 120.153C68.9888 120.24 69.0123 120.349 68.9939 120.454C68.9755 120.56 68.9168 120.653 68.8305 120.715L68.32 121.081C68.2727 121.115 68.2333 121.158 68.2044 121.209C68.1755 121.26 68.1579 121.316 68.1526 121.375L68.0953 122.005C68.0856 122.112 68.0348 122.21 67.9539 122.279C67.873 122.348 67.7685 122.382 67.6633 122.373L67.0406 122.32C66.9829 122.315 66.9249 122.323 66.8705 122.343C66.816 122.363 66.7666 122.395 66.7254 122.436L66.2818 122.882Z" fill="#E9AF58"/>
<path d="M76.2222 102.547H63.7778C63.3482 102.547 63 103.426 63 104.509C63 105.593 63.3482 106.472 63.7778 106.472H76.2222C76.6518 106.472 77 105.593 77 104.509C77 103.426 76.6518 102.547 76.2222 102.547Z" fill="#D2D5D9"/>
<path d="M80 109.415H64C63.4477 109.415 63 110.294 63 111.377C63 112.461 63.4477 113.34 64 113.34H80C80.5523 113.34 81 112.461 81 111.377C81 110.294 80.5523 109.415 80 109.415Z" fill="#D2D5D9"/>
<path d="M83.7778 95.6793H64.2222C63.5472 95.6793 63 96.5578 63 97.6415C63 98.7253 63.5472 99.6038 64.2222 99.6038H83.7778C84.4528 99.6038 85 98.7253 85 97.6415C85 96.5578 84.4528 95.6793 83.7778 95.6793Z" fill="#D2D5D9"/>
</g>
<path d="M25.7631 87.3189C25.7441 87.1508 25.666 87.0206 25.5287 86.9283C25.3914 86.8348 25.2186 86.788 25.0102 86.788C24.8611 86.788 24.7321 86.8117 24.6232 86.859C24.5143 86.9052 24.4296 86.9691 24.3693 87.0508C24.3101 87.1313 24.2805 87.223 24.2805 87.326C24.2805 87.4124 24.3006 87.487 24.3409 87.5497C24.3823 87.6125 24.4361 87.6651 24.5024 87.7077C24.5699 87.7492 24.6421 87.7841 24.7191 87.8125C24.796 87.8397 24.87 87.8622 24.941 87.88L25.2961 87.9723C25.4121 88.0007 25.5311 88.0392 25.653 88.0877C25.7749 88.1362 25.888 88.2002 25.9921 88.2795C26.0963 88.3588 26.1803 88.457 26.2443 88.5742C26.3094 88.6914 26.3419 88.8317 26.3419 88.995C26.3419 89.201 26.2887 89.3839 26.1821 89.5437C26.0768 89.7035 25.9235 89.8295 25.7222 89.9219C25.5222 90.0142 25.2801 90.0604 24.996 90.0604C24.7238 90.0604 24.4882 90.0172 24.2894 89.9308C24.0905 89.8443 23.9348 89.7218 23.8224 89.5632C23.7099 89.4034 23.6478 89.214 23.636 88.995H24.1864C24.197 89.1264 24.2396 89.2359 24.3142 89.3235C24.39 89.4099 24.4865 89.4744 24.6036 89.517C24.722 89.5585 24.8516 89.5792 24.9925 89.5792C25.1476 89.5792 25.2855 89.5549 25.4062 89.5064C25.5281 89.4567 25.624 89.388 25.6938 89.3004C25.7637 89.2116 25.7986 89.1081 25.7986 88.9897C25.7986 88.882 25.7678 88.7938 25.7063 88.7251C25.6459 88.6565 25.5636 88.5997 25.4595 88.5547C25.3565 88.5097 25.2399 88.4701 25.1097 88.4357L24.68 88.3185C24.3888 88.2392 24.158 88.1226 23.9875 87.9688C23.8182 87.8149 23.7336 87.6113 23.7336 87.358C23.7336 87.1484 23.7904 86.9656 23.9041 86.8093C24.0177 86.6531 24.1716 86.5317 24.3657 86.4453C24.5598 86.3577 24.7788 86.3139 25.0227 86.3139C25.2689 86.3139 25.4861 86.3571 25.6743 86.4435C25.8637 86.5299 26.0128 86.6489 26.1218 86.8004C26.2307 86.9508 26.2875 87.1236 26.2922 87.3189H25.7631ZM29.153 87.2727V87.6989H27.6633V87.2727H29.153ZM28.0628 86.6193H28.5937V89.1992C28.5937 89.3022 28.6091 89.3797 28.6399 89.4318C28.6707 89.4827 28.7103 89.5176 28.7588 89.5366C28.8086 89.5543 28.8624 89.5632 28.9204 89.5632C28.963 89.5632 29.0003 89.5603 29.0323 89.5543C29.0642 89.5484 29.0891 89.5437 29.1069 89.5401L29.2027 89.9787C29.172 89.9905 29.1282 90.0024 29.0713 90.0142C29.0145 90.0272 28.9435 90.0343 28.8583 90.0355C28.7186 90.0379 28.5884 90.013 28.4676 89.9609C28.3469 89.9089 28.2493 89.8284 28.1747 89.7195C28.1001 89.6106 28.0628 89.4738 28.0628 89.3093V86.6193ZM31.459 90.0604C31.2861 90.0604 31.1299 90.0284 30.9902 89.9645C30.8505 89.8994 30.7399 89.8053 30.6582 89.6822C30.5777 89.5591 30.5374 89.4081 30.5374 89.2294C30.5374 89.0755 30.567 88.9489 30.6262 88.8494C30.6854 88.75 30.7653 88.6713 30.8659 88.6133C30.9665 88.5553 31.079 88.5115 31.2033 88.4819C31.3276 88.4523 31.4542 88.4298 31.5833 88.4144C31.7466 88.3955 31.8792 88.3801 31.981 88.3683C32.0828 88.3552 32.1568 88.3345 32.2029 88.3061C32.2491 88.2777 32.2722 88.2315 32.2722 88.1676V88.1552C32.2722 88.0001 32.2284 87.88 32.1408 87.7947C32.0544 87.7095 31.9253 87.6669 31.7537 87.6669C31.575 87.6669 31.4341 87.7066 31.3311 87.7859C31.2293 87.864 31.1589 87.951 31.1198 88.0469L30.6209 87.9332C30.6801 87.7675 30.7665 87.6338 30.8801 87.532C30.995 87.429 31.1269 87.3544 31.2761 87.3082C31.4252 87.2609 31.5821 87.2372 31.7466 87.2372C31.8555 87.2372 31.9709 87.2502 32.0928 87.2763C32.216 87.3011 32.3308 87.3473 32.4373 87.4148C32.545 87.4822 32.6332 87.5787 32.7019 87.7042C32.7705 87.8285 32.8048 87.9901 32.8048 88.1889V90H32.2864V89.6271H32.2651C32.2307 89.6958 32.1793 89.7633 32.1106 89.8295C32.0419 89.8958 31.9538 89.9509 31.846 89.9947C31.7383 90.0385 31.6093 90.0604 31.459 90.0604ZM31.5744 89.6342C31.7212 89.6342 31.8466 89.6052 31.9508 89.5472C32.0561 89.4892 32.1361 89.4135 32.1905 89.32C32.2461 89.2253 32.274 89.1241 32.274 89.0163V88.6648C32.255 88.6837 32.2183 88.7015 32.1639 88.718C32.1106 88.7334 32.0496 88.747 31.981 88.7589C31.9123 88.7695 31.8454 88.7796 31.7803 88.7891C31.7152 88.7973 31.6608 88.8045 31.617 88.8104C31.514 88.8234 31.4199 88.8453 31.3347 88.8761C31.2506 88.9068 31.1832 88.9512 31.1323 89.0092C31.0825 89.0661 31.0577 89.1418 31.0577 89.2365C31.0577 89.3679 31.1062 89.4673 31.2033 89.5348C31.3003 89.6011 31.424 89.6342 31.5744 89.6342ZM34.437 90V87.2727H34.9501V87.706H34.9785C35.0282 87.5592 35.1158 87.4438 35.2413 87.3597C35.368 87.2745 35.5112 87.2319 35.671 87.2319C35.7041 87.2319 35.7432 87.2331 35.7882 87.2354C35.8343 87.2378 35.8704 87.2408 35.8965 87.2443V87.7521C35.8752 87.7462 35.8373 87.7397 35.7828 87.7326C35.7284 87.7243 35.6739 87.7202 35.6195 87.7202C35.494 87.7202 35.3822 87.7468 35.2839 87.8001C35.1868 87.8522 35.1099 87.925 35.0531 88.0185C34.9963 88.1108 34.9679 88.2161 34.9679 88.3345V90H34.437ZM38.7151 87.2727V87.6989H37.2254V87.2727H38.7151ZM37.6249 86.6193H38.1558V89.1992C38.1558 89.3022 38.1712 89.3797 38.202 89.4318C38.2328 89.4827 38.2724 89.5176 38.321 89.5366C38.3707 89.5543 38.4245 89.5632 38.4825 89.5632C38.5251 89.5632 38.5624 89.5603 38.5944 89.5543C38.6263 89.5484 38.6512 89.5437 38.669 89.5401L38.7648 89.9787C38.7341 89.9905 38.6903 90.0024 38.6335 90.0142C38.5766 90.0272 38.5056 90.0343 38.4204 90.0355C38.2807 90.0379 38.1505 90.013 38.0298 89.9609C37.909 89.9089 37.8114 89.8284 37.7368 89.7195C37.6622 89.6106 37.6249 89.4738 37.6249 89.3093V86.6193ZM41.3735 90.055C41.1048 90.055 40.8734 89.9976 40.6793 89.8828C40.4863 89.7668 40.3372 89.604 40.2318 89.3945C40.1277 89.1838 40.0756 88.937 40.0756 88.6541C40.0756 88.3748 40.1277 88.1286 40.2318 87.9155C40.3372 87.7024 40.484 87.5361 40.6722 87.4165C40.8616 87.297 41.0829 87.2372 41.3362 87.2372C41.4901 87.2372 41.6393 87.2627 41.7837 87.3136C41.9281 87.3645 42.0577 87.4444 42.1725 87.5533C42.2874 87.6622 42.3779 87.8036 42.4442 87.9776C42.5105 88.1504 42.5436 88.3606 42.5436 88.608V88.7962H40.3757V88.3984H42.0234C42.0234 88.2588 41.995 88.1351 41.9382 88.0273C41.8813 87.9184 41.8014 87.8326 41.6985 87.7699C41.5967 87.7071 41.4771 87.6758 41.3398 87.6758C41.1906 87.6758 41.0604 87.7125 40.9492 87.7859C40.8391 87.8581 40.7539 87.9528 40.6935 88.07C40.6343 88.186 40.6047 88.312 40.6047 88.4482V88.7589C40.6047 88.9412 40.6367 89.0962 40.7006 89.2241C40.7657 89.3519 40.8562 89.4496 40.9722 89.517C41.0883 89.5833 41.2238 89.6165 41.3789 89.6165C41.4795 89.6165 41.5712 89.6023 41.6541 89.5739C41.7369 89.5443 41.8085 89.5005 41.8689 89.4425C41.9293 89.3845 41.9754 89.3129 42.0074 89.2276L42.5099 89.3182C42.4696 89.4661 42.3974 89.5958 42.2933 89.707C42.1903 89.8171 42.0607 89.9029 41.9044 89.9645C41.7494 90.0249 41.5724 90.055 41.3735 90.055ZM44.0577 90V87.2727H44.5708V87.706H44.5992C44.6489 87.5592 44.7365 87.4438 44.862 87.3597C44.9887 87.2745 45.1319 87.2319 45.2917 87.2319C45.3248 87.2319 45.3639 87.2331 45.4089 87.2354C45.455 87.2378 45.4911 87.2408 45.5172 87.2443V87.7521C45.4959 87.7462 45.458 87.7397 45.4036 87.7326C45.3491 87.7243 45.2946 87.7202 45.2402 87.7202C45.1147 87.7202 45.0029 87.7468 44.9046 87.8001C44.8076 87.8522 44.7306 87.925 44.6738 88.0185C44.617 88.1108 44.5886 88.2161 44.5886 88.3345V90H44.0577Z" fill="black"/>
<path d="M69.9584 90V86.3636H71.2546C71.5375 86.3636 71.7718 86.4151 71.9577 86.5181C72.1435 86.6211 72.2826 86.762 72.3749 86.9407C72.4673 87.1183 72.5134 87.3183 72.5134 87.5408C72.5134 87.7646 72.4667 87.9658 72.3732 88.1445C72.2808 88.3221 72.1412 88.4629 71.9541 88.5671C71.7683 88.6701 71.5345 88.7216 71.2528 88.7216H70.3614V88.2564H71.2031C71.3818 88.2564 71.5268 88.2256 71.6381 88.1641C71.7493 88.1013 71.831 88.0161 71.8831 87.9084C71.9352 87.8007 71.9612 87.6781 71.9612 87.5408C71.9612 87.4035 71.9352 87.2816 71.8831 87.1751C71.831 87.0685 71.7488 86.9851 71.6363 86.9247C71.525 86.8643 71.3783 86.8342 71.196 86.8342H70.507V90H69.9584ZM74.039 90V87.2727H74.5522V87.706H74.5806C74.6303 87.5592 74.7179 87.4438 74.8434 87.3597C74.97 87.2745 75.1132 87.2319 75.273 87.2319C75.3062 87.2319 75.3452 87.2331 75.3902 87.2354C75.4364 87.2378 75.4725 87.2408 75.4985 87.2443V87.7521C75.4772 87.7462 75.4393 87.7397 75.3849 87.7326C75.3304 87.7243 75.276 87.7202 75.2215 87.7202C75.0961 87.7202 74.9842 87.7468 74.886 87.8001C74.7889 87.8522 74.712 87.925 74.6551 88.0185C74.5983 88.1108 74.5699 88.2161 74.5699 88.3345V90H74.039ZM77.9341 90.055C77.6784 90.055 77.4553 89.9964 77.2647 89.8793C77.0741 89.7621 76.9262 89.5981 76.8208 89.3874C76.7155 89.1767 76.6628 88.9305 76.6628 88.6488C76.6628 88.3659 76.7155 88.1185 76.8208 87.9066C76.9262 87.6947 77.0741 87.5302 77.2647 87.413C77.4553 87.2958 77.6784 87.2372 77.9341 87.2372C78.1898 87.2372 78.4129 87.2958 78.6035 87.413C78.7941 87.5302 78.942 87.6947 79.0474 87.9066C79.1527 88.1185 79.2054 88.3659 79.2054 88.6488C79.2054 88.9305 79.1527 89.1767 79.0474 89.3874C78.942 89.5981 78.7941 89.7621 78.6035 89.8793C78.4129 89.9964 78.1898 90.055 77.9341 90.055ZM77.9359 89.6094C78.1016 89.6094 78.2389 89.5656 78.3478 89.478C78.4567 89.3904 78.5372 89.2738 78.5893 89.1282C78.6426 88.9826 78.6692 88.8222 78.6692 88.647C78.6692 88.473 78.6426 88.3132 78.5893 88.1676C78.5372 88.0208 78.4567 87.9031 78.3478 87.8143C78.2389 87.7255 78.1016 87.6811 77.9359 87.6811C77.769 87.6811 77.6305 87.7255 77.5204 87.8143C77.4115 87.9031 77.3304 88.0208 77.2771 88.1676C77.2251 88.3132 77.199 88.473 77.199 88.647C77.199 88.8222 77.2251 88.9826 77.2771 89.1282C77.3304 89.2738 77.4115 89.3904 77.5204 89.478C77.6305 89.5656 77.769 89.6094 77.9359 89.6094Z" fill="black"/>
<defs>
<filter id="filter0_dd_207_38" x="10.07" y="7.626" width="203.86" height="153.86" filterUnits="userSpaceOnUse" color-interpolation-filters="sRGB">
<feFlood flood-opacity="0" result="BackgroundImageFix"/>
<feColorMatrix in="SourceAlpha" type="matrix" values="0 0 0 0 0 0 0 0 0 0 0 0 0 0 0 0 0 0 127 0" result="hardAlpha"/>
<feOffset dy="1.556"/>
<feGaussianBlur stdDeviation="5.965"/>
<feColorMatrix type="matrix" values="0 0 0 0 0 0 0 0 0 0 0 0 0 0 0 0 0 0 0.09 0"/>
<feBlend mode="normal" in2="BackgroundImageFix" result="effect1_dropShadow_207_38"/>
<feColorMatrix in="SourceAlpha" type="matrix" values="0 0 0 0 0 0 0 0 0 0 0 0 0 0 0 0 0 0 127 0" result="hardAlpha"/>
<feOffset dy="1.037"/>
<feGaussianBlur stdDeviation="0.778"/>
<feColorMatrix type="matrix" values="0 0 0 0 0 0 0 0 0 0 0 0 0 0 0 0 0 0 0.12 0"/>
<feBlend mode="normal" in2="effect1_dropShadow_207_38" result="effect2_dropShadow_207_38"/>
<feBlend mode="normal" in="SourceGraphic" in2="effect2_dropShadow_207_38" result="shape"/>
</filter>
<filter id="filter1_dd_207_38" x="0.0699997" y="68.626" width="108.86" height="75.86" filterUnits="userSpaceOnUse" color-interpolation-filters="sRGB">
<feFlood flood-opacity="0" result="BackgroundImageFix"/>
<feColorMatrix in="SourceAlpha" type="matrix" values="0 0 0 0 0 0 0 0 0 0 0 0 0 0 0 0 0 0 127 0" result="hardAlpha"/>
<feOffset dy="1.556"/>
<feGaussianBlur stdDeviation="5.965"/>
<feColorMatrix type="matrix" values="0 0 0 0 0 0 0 0 0 0 0 0 0 0 0 0 0 0 0.09 0"/>
<feBlend mode="normal" in2="BackgroundImageFix" result="effect1_dropShadow_207_38"/>
<feColorMatrix in="SourceAlpha" type="matrix" values="0 0 0 0 0 0 0 0 0 0 0 0 0 0 0 0 0 0 127 0" result="hardAlpha"/>
<feOffset dy="1.037"/>
<feGaussianBlur stdDeviation="0.778"/>
<feColorMatrix type="matrix" values="0 0 0 0 0 0 0 0 0 0 0 0 0 0 0 0 0 0 0.12 0"/>
<feBlend mode="normal" in2="effect1_dropShadow_207_38" result="effect2_dropShadow_207_38"/>
<feBlend mode="normal" in="SourceGraphic" in2="effect2_dropShadow_207_38" result="shape"/>
</filter>
</defs>
</svg>
